<!DOCTYPE svg PUBLIC "-//W3C//DTD SVG 1.1//EN" "http://www.w3.org/Graphics/SVG/1.1/DTD/svg11.dtd">
<!-- Uploaded to: SVG Repo, www.svgrepo.com, Transformed by: SVG Repo Mixer Tools -->
<svg fill="#ffffff" width="64px" height="64px" viewBox="0 0 32 32" version="1.1" xmlns="http://www.w3.org/2000/svg">
<g id="SVGRepo_bgCarrier" stroke-width="0"/>
<g id="SVGRepo_tracerCarrier" stroke-linecap="round" stroke-linejoin="round"/>
<g id="SVGRepo_iconCarrier"> <title>expand</title> <path d="M13.816 5.989l-7.785 0.046 0.003 7.735 2.59-2.591 3.454 3.454 2.665-2.665-3.453-3.454 2.526-2.525zM12.079 17.35l-3.454 3.455-2.59-2.592-0.003 7.799 7.785-0.018-2.526-2.525 3.454-3.453-2.666-2.666zM19.922 14.633l3.453-3.454 2.59 2.591 0.004-7.735-7.785-0.046 2.526 2.525-3.454 3.454 2.666 2.665zM23.375 20.805l-3.453-3.455-2.666 2.666 3.454 3.453-2.526 2.525 7.785 0.018-0.004-7.799-2.59 2.592z"/> </g>
</svg>